# xmcd
#
# Track frame offsets: 
#        150
#        17214
#        40421
#        64454
#        83910
#        102100
#        118222
#        145068
#        158675
#        173742
#        209691
#        228397
#        249111
#        273132
#        293985
#
# Disc length: 4226 seconds
#
# Revision: 0
# Processed by: cddbd v1.5.2PL0 Copyright (c) Steve Scherf et al.
# Submitted via: ExactAudioCopy v0.99pb1
#
DISCID=d410800f
DTITLE=Adrián Flores - Blues From The Deep South
DYEAR=2001
DGENRE=Blues
TTITLE0=Dust My Broom
TTITLE1=Rollin' And Tumblin'
TTITLE2=Trouble In Mind
TTITLE3=Living In My Neighbourhood
TTITLE4=Going Upside Your Head
TTITLE5=Nine Below Zero
TTITLE6=Hoochie Coochie Man
TTITLE7=Everyday I've The Blues
TTITLE8=Got To Move
TTITLE9=Cold Cold Feeling - Don't Tell Me 'bout Your Troubles
TTITLE10=I've Got The Blues
TTITLE11=Stormy Monday Blues
TTITLE12=Don't Want No Woman - Good Morning Blues
TTITLE13=Who's Been Talking
TTITLE14=I'm In The Mood
EXTD=
EXTT0=
EXTT1=
EXTT2=
EXTT3=
EXTT4=
EXTT5=
EXTT6=
EXTT7=
EXTT8=
EXTT9=
EXTT10=
EXTT11=
EXTT12=
EXTT13=
EXTT14=
PLAYORDER=
